HIERARCHY
ROOT Hips
{
	OFFSET 0.000000 88.474243 0.000000
	CHANNELS 6 Xposition Yposition Zposition Zrotation Yrotation Xrotation 
	JOINT Hips_Spine
	{
		OFFSET 0.000000 0.000000 0.000000
		CHANNELS 3 Zrotation Yrotation Xrotation
		JOINT Spine
		{
			OFFSET 0.005100 8.711998 -0.691000
			CHANNELS 3 Zrotation Yrotation Xrotation
			JOINT Spine1
			{
				OFFSET -0.009200 8.660301 -1.275000
				CHANNELS 3 Zrotation Yrotation Xrotation
				JOINT Spine2
				{
					OFFSET 0.006300 9.852501 -1.857000
					CHANNELS 3 Zrotation Yrotation Xrotation
					JOINT Spine2_Neck
					{
						OFFSET 0.000000 0.000000 0.000000
						CHANNELS 3 Zrotation Yrotation Xrotation
						JOINT Neck
						{
							OFFSET 0.016300 11.420799 -0.263300
							CHANNELS 3 Zrotation Yrotation Xrotation
							End Site #name: Head
							{
								OFFSET -0.019200 9.262405 2.362500
							}
						}
					}
					JOINT Spine2_LeftShoulder
					{
						OFFSET 0.000000 0.000000 0.000000
						CHANNELS 3 Zrotation Yrotation Xrotation
						JOINT LeftShoulder
						{
							OFFSET 5.616900 6.732201 -0.345700
							CHANNELS 3 Zrotation Yrotation Xrotation
							JOINT LeftArm
							{
								OFFSET 10.664888 -0.183372 -2.440700
								CHANNELS 3 Zrotation Yrotation Xrotation
								JOINT LeftForeArm
								{
									OFFSET 27.459126 0.000000 0.000000
									CHANNELS 3 Zrotation Yrotation Xrotation
									End Site #name: LeftHand
									{
										OFFSET 21.306858 0.000000 0.000000
									}
								}
							}
						}
					}
					JOINT Spine2_RightShoulder
					{
						OFFSET 0.000000 0.000000 0.000000
						CHANNELS 3 Zrotation Yrotation Xrotation
						JOINT RightShoulder
						{
							OFFSET -5.580300 6.737503 -0.344400
							CHANNELS 3 Zrotation Yrotation Xrotation
							JOINT RightArm
							{
								OFFSET -10.679335 -0.188484 -2.383900
								CHANNELS 3 Zrotation Yrotation Xrotation
								JOINT RightForeArm
								{
									OFFSET -27.503529 0.000000 0.000000
									CHANNELS 3 Zrotation Yrotation Xrotation
									End Site #name: RightHand
									{
										OFFSET -21.306808 0.000000 0.000000
									}
								}
							}
						}
					}
				}
			}
		}
	}
	JOINT Hips_LeftUpLeg
	{
		OFFSET 0.000000 0.000000 0.000000
		CHANNELS 3 Zrotation Yrotation Xrotation
		JOINT LeftUpLeg
		{
			OFFSET 6.857700 -6.739601 0.312100
			CHANNELS 3 Zrotation Yrotation Xrotation
			JOINT LeftLeg
			{
				OFFSET -0.367590 -34.731552 -4.572400
				CHANNELS 3 Zrotation Yrotation Xrotation
				End Site #name: LeftFoot
				{
					OFFSET 0.367590 -34.656704 -6.067400
				}
			}
		}
	}
	JOINT Hips_RightUpLeg
	{
		OFFSET 0.000000 0.000000 0.000000
		CHANNELS 3 Zrotation Yrotation Xrotation
		JOINT RightUpLeg
		{
			OFFSET -6.876100 -6.733299 0.301000
			CHANNELS 3 Zrotation Yrotation Xrotation
			JOINT RightLeg
			{
				OFFSET 0.347353 -34.795158 -4.515900
				CHANNELS 3 Zrotation Yrotation Xrotation
				End Site #name: RightFoot
				{
					OFFSET -0.347353 -34.589367 -6.070300
				}
			}
		}
	}
}
MOTION
Frames: 9
Frame Time: 0.041667
0.026824 -0.024579 -0.080333 -177.494604 60.607169 -173.380206 -0.000000 -0.000000 0.000000 -3.865176 3.813041 -0.799554 0.998985 -0.330042 0.569811 0.000000 0.000000 0.000000 0.347694 -0.937669 -2.816480 -1.807552 -8.655342 -0.791417 0.529967 -0.066517 -1.150010 -3.454733 -7.403252 1.551207 -77.953532 -8.908044 9.755829 0.762221 -17.496468 3.357155 0.257446 -0.483215 -1.521455 18.592430 13.041246 4.528897 50.600222 11.542478 -11.042382 -7.267982 69.320402 -0.771592 0.000000 -0.000000 0.000000 -8.454180 18.625494 -16.265760 -7.620552 -37.375866 1.325559 -0.000000 -0.000000 -0.000000 -9.094709 -31.232663 -7.089538 -15.331375 -10.583298 14.849006 
-0.244471 -0.203826 -0.118353 178.989624 63.578079 -175.243126 -0.000000 -0.000000 0.000000 -5.813818 2.508394 1.447748 1.236234 -0.545302 -0.562556 0.000000 0.000000 0.000000 1.149235 -0.643992 -2.865603 -0.483917 -17.119163 -0.101532 0.667719 -0.269930 -1.868992 -2.432950 -8.905988 1.795722 -83.540825 -15.857598 5.732436 -1.135045 -14.385782 1.612625 0.991511 -0.801705 -0.502650 24.147408 16.207249 4.898650 50.159759 9.803362 -12.145568 -4.796981 52.011453 1.023957 -0.000000 -0.000000 -0.000000 -6.757781 19.533283 -14.106159 -4.056496 -35.100921 -4.716757 -0.000000 -0.000000 -0.000000 -9.513603 -37.296665 -5.796058 -13.439019 -6.822471 14.108399 
-0.274772 -0.281509 -0.136671 177.431863 52.408596 -176.664472 -0.000000 -0.000000 0.000000 -6.636485 -0.392372 2.012506 1.452094 -0.562554 -1.250599 0.000000 0.000000 0.000000 1.570222 -0.817818 -3.102488 -1.144237 -26.869799 -0.108491 0.715340 -0.239649 -2.379577 -1.274117 -7.906174 1.142327 -84.818846 -17.196118 0.511212 -0.874382 -8.899739 1.821225 1.335285 -0.931728 -1.947222 25.797864 18.283034 5.881966 51.254608 9.148461 -7.350344 -3.924082 48.150992 3.249916 -0.000000 0.000000 -0.000000 -5.385594 20.478776 -12.652652 -3.057082 -33.967786 -7.024714 -0.000000 -0.000000 -0.000000 -9.974959 -42.505266 -3.580247 -13.451420 -6.795764 15.047731 
-0.147658 -0.331757 -0.154217 177.798324 39.815886 -177.130368 -0.000000 -0.000000 0.000000 -6.466650 -1.287064 2.671832 1.106884 -0.869812 -1.691750 0.000000 0.000000 0.000000 1.481218 -1.075993 -3.024938 -1.681142 -31.929779 -0.249593 0.570976 -0.426506 -2.765157 -0.948117 -6.889823 0.784694 -85.619404 -18.373027 -1.009850 -0.586253 -6.282677 1.757555 1.076484 -1.365723 -2.093724 24.582152 17.973733 5.956106 51.749082 9.932738 -5.048040 -2.058298 47.723261 4.618935 -0.000000 0.000000 -0.000000 -4.739543 21.319470 -11.416387 -2.372632 -34.774449 -7.926250 -0.000000 -0.000000 -0.000000 -10.912831 -49.590334 -2.167414 -13.812682 -5.969665 16.207095 
0.011083 -0.356366 -0.212319 177.518383 28.436997 -177.664553 -0.000000 -0.000000 0.000000 -5.856761 -1.461314 2.919558 0.623558 -1.115192 -1.920210 0.000000 0.000000 0.000000 1.233896 -1.318015 -2.659283 -1.568750 -33.612742 -0.543415 0.266204 -0.675854 -2.831542 -1.034059 -5.934408 0.591233 -86.185132 -19.270931 -0.592976 -0.056184 -5.182358 2.169092 0.672890 -1.627411 -1.808207 22.346449 16.815271 5.621510 52.246815 10.582219 -2.779916 -1.204333 48.544497 4.481904 -0.000000 0.000000 -0.000000 -4.432309 21.981822 -10.722008 -2.071730 -35.446337 -8.363802 -0.000000 -0.000000 -0.000000 -11.485601 -55.022611 -1.488311 -14.354814 -5.030959 17.234566 
0.178575 -0.359431 -0.307015 176.773060 18.613199 -178.119222 -0.000000 -0.000000 0.000000 -5.210753 -1.279377 3.073164 0.185646 -1.304907 -1.798580 0.000000 0.000000 0.000000 0.959459 -1.438816 -2.041409 -0.989131 -32.918293 -1.389723 -0.019018 -0.836656 -2.503543 -1.216051 -5.088453 0.481225 -86.480204 -19.493881 0.138502 0.877462 -4.882813 2.968184 0.296130 -1.723151 -1.196826 20.186816 15.564052 5.765239 52.924815 10.494896 -0.500004 -1.710872 49.621604 3.405191 -0.000000 0.000000 -0.000000 -4.531226 22.196969 -10.583269 -1.929264 -35.879309 -8.741694 -0.000000 -0.000000 -0.000000 -11.494058 -58.796440 -1.555566 -14.881744 -4.495001 18.004276 
0.350277 -0.342337 -0.423964 175.944295 11.380952 -178.353280 -0.000000 -0.000000 0.000000 -4.822248 -0.270844 3.115568 -0.110484 -1.347116 -1.295553 0.000000 0.000000 0.000000 0.737994 -1.450236 -1.279676 -0.439034 -31.274686 -2.420531 -0.177714 -0.905517 -2.041375 -1.443667 -4.270421 0.412605 -86.342670 -19.553476 1.007737 1.665750 -5.505795 3.647070 0.050175 -1.727471 -0.816887 18.390614 14.413733 6.042028 53.628487 8.974001 1.602971 -2.014384 49.080612 2.766892 -0.000000 0.000000 -0.000000 -4.787526 21.936634 -10.722116 -1.861560 -36.190372 -9.168604 -0.000000 -0.000000 -0.000000 -11.287824 -60.711002 -1.899350 -15.348129 -4.470983 18.342763 
0.521124 -0.314434 -0.553029 175.244928 5.901333 -178.442935 -0.000000 -0.000000 0.000000 -4.729109 0.971771 3.133606 -0.245935 -1.277312 -0.603142 0.000000 0.000000 0.000000 0.528510 -1.400662 -0.473275 -0.072028 -29.567984 -3.211920 -0.288351 -0.906800 -1.505704 -1.580079 -3.697170 0.394116 -85.856610 -19.791137 1.863268 2.208065 -6.778605 3.934366 -0.096182 -1.706391 -0.589408 17.068089 13.943203 5.760983 54.462357 7.118856 4.332861 -2.013662 47.479883 2.705404 -0.000000 0.000000 -0.000000 -4.990948 21.491243 -10.850749 -1.824982 -36.413548 -9.530427 -0.000000 -0.000000 -0.000000 -11.101912 -61.474644 -2.320295 -15.735965 -4.774636 18.322286 
0.689597 -0.277902 -0.682244 174.729652 1.041925 -178.474710 -0.000000 -0.000000 0.000000 -4.868123 1.965040 3.271366 -0.297261 -1.176095 0.050945 0.000000 0.000000 0.000000 0.380750 -1.327434 0.177507 -0.219630 -28.291999 -3.512450 -0.355112 -0.870141 -1.128910 -1.567048 -3.390792 0.422196 -85.162899 -20.149150 2.627656 2.544305 -8.597466 3.684458 -0.202544 -1.694767 -0.374078 16.244046 13.747755 5.311202 54.964637 6.035730 5.493068 -1.684024 44.466901 3.120658 -0.000000 0.000000 -0.000000 -5.015440 21.066044 -10.561773 -1.737368 -36.634142 -9.936182 -0.000000 -0.000000 -0.000000 -10.985105 -61.574913 -2.666227 -15.977058 -5.392155 17.996085 
